<?xml version="1.0" standalone="no"?>
<!DOCTYPE svg PUBLIC "-//W3C//DTD SVG 20010904//EN"
 "http://www.w3.org/TR/2001/REC-SVG-20010904/DTD/svg10.dtd">
<svg version="1.0" xmlns="http://www.w3.org/2000/svg"
 width="140.000000pt" height="140.000000pt" viewBox="0 0 140.000000 140.000000"
 preserveAspectRatio="xMidYMid meet">
<metadata>
Created by potrace 1.11, written by Peter Selinger 2001-2013
</metadata>
<g transform="translate(0.000000,140.000000) scale(0.100000,-0.100000)"
fill="#000000" stroke="none">
<path d="M490 923 c-35 -13 -40 -35 -40 -188 0 -102 -4 -155 -12 -163 -20 -20
-38 6 -38 54 0 51 -16 64 -83 64 -61 0 -81 -23 -75 -88 9 -97 79 -151 196
-152 76 0 119 16 155 59 l27 33 0 173 0 174 -26 20 c-25 20 -71 26 -104 14z"/>
<path d="M725 919 c-11 -7 -23 -17 -27 -23 -12 -18 -9 -385 3 -407 14 -27 56
-42 96 -34 38 7 63 45 63 98 0 35 0 35 58 42 124 15 182 65 182 159 0 63 -30
117 -84 147 -35 20 -57 24 -156 27 -76 2 -122 -2 -135 -9z m186 -99 c14 -8 19
-21 19 -50 0 -42 -20 -70 -51 -70 -17 0 -19 7 -19 65 0 69 8 78 51 55z"/>
</g>
</svg>
