<?xml version="1.0" standalone="no"?>
<!DOCTYPE svg PUBLIC "-//W3C//DTD SVG 20010904//EN"
 "http://www.w3.org/TR/2001/REC-SVG-20010904/DTD/svg10.dtd">
<svg version="1.0" xmlns="http://www.w3.org/2000/svg"
 width="597.000000pt" height="597.000000pt" viewBox="0 0 597.000000 597.000000"
 preserveAspectRatio="xMidYMid meet">
<metadata>
Created by potrace 1.11, written by Peter Selinger 2001-2013
</metadata>
<g transform="translate(0.000000,597.000000) scale(0.100000,-0.100000)"
fill="#000000" stroke="none">
<path d="M2261 5858 c-23 -62 -49 -127 -57 -145 -8 -17 -14 -37 -14 -45 0 -8
-4 -18 -9 -23 -4 -6 -21 -46 -36 -90 -16 -44 -31 -84 -35 -90 -4 -5 -17 -39
-29 -75 -12 -36 -29 -78 -36 -95 -7 -16 -24 -59 -38 -95 -28 -77 -254 -667
-302 -790 -18 -47 -90 -233 -160 -415 -69 -181 -133 -344 -141 -362 -7 -17
-14 -36 -14 -41 0 -6 -11 -37 -25 -69 -13 -32 -88 -224 -165 -428 -78 -203
-145 -379 -150 -390 -5 -11 -21 -51 -35 -90 -14 -38 -29 -79 -34 -90 -5 -11
-23 -56 -39 -100 -17 -44 -51 -132 -75 -195 -25 -63 -81 -212 -126 -330 -45
-118 -87 -226 -93 -240 -5 -14 -44 -113 -85 -220 -74 -194 -92 -242 -152 -395
-17 -44 -114 -296 -215 -560 l-184 -480 2966 -3 c1631 -1 2967 0 2969 2 3 2 0
12 -6 23 -5 10 -19 45 -31 78 -12 33 -26 69 -31 80 -5 11 -36 92 -69 180 -33
88 -64 169 -69 180 -8 17 -132 339 -332 865 -33 85 -64 164 -69 175 -5 11 -34
88 -65 170 -31 83 -67 177 -80 210 -13 33 -42 110 -65 170 -23 61 -48 124 -56
142 -8 17 -14 34 -14 37 0 3 -24 68 -54 143 -57 146 -181 469 -266 693 -28 74
-55 144 -60 155 -5 11 -23 58 -40 105 -18 47 -38 99 -45 115 -7 17 -47 122
-90 235 -42 113 -86 224 -96 247 -10 24 -19 45 -19 48 0 3 -108 288 -241 633
-241 626 -257 668 -322 837 -19 50 -66 170 -103 268 l-68 177 -676 0 -676 0
-43 -112z"/>
</g>
</svg>
